<svg width="16" height="16" viewBox="0 0 16 16" fill="none" xmlns="http://www.w3.org/2000/svg">
<path fill-rule="evenodd" clip-rule="evenodd" d="M2.6665 2.00001C2.29831 2.00001 1.99984 2.29848 1.99984 2.66667C1.99984 3.03486 2.29831 3.33334 2.6665 3.33334C3.03469 3.33334 3.33317 3.03486 3.33317 2.66667C3.33317 2.29848 3.03469 2.00001 2.6665 2.00001ZM0.666504 2.66667C0.666504 1.5621 1.56193 0.666672 2.6665 0.666672C3.77107 0.666672 4.6665 1.5621 4.6665 2.66667C4.6665 3.77124 3.77107 4.66667 2.6665 4.66667C1.56193 4.66667 0.666504 3.77124 0.666504 2.66667ZM10.6665 6.00001C9.78245 6.00001 8.9346 6.35119 8.30948 6.97632C7.68436 7.60144 7.33317 8.44928 7.33317 9.33334V13.3333H8.6665V9.33334C8.6665 8.80291 8.87722 8.2942 9.25229 7.91913C9.62736 7.54405 10.1361 7.33334 10.6665 7.33334C11.1969 7.33334 11.7056 7.54405 12.0807 7.91913C12.4558 8.2942 12.6665 8.80291 12.6665 9.33334V13.3333H13.9998V9.33334C13.9998 8.44928 13.6486 7.60144 13.0235 6.97632C12.3984 6.35119 11.5506 6.00001 10.6665 6.00001ZM7.36667 6.03351C8.24184 5.15834 9.42883 4.66667 10.6665 4.66667C11.9042 4.66667 13.0912 5.15834 13.9663 6.03351C14.8415 6.90868 15.3332 8.09566 15.3332 9.33334V14C15.3332 14.3682 15.0347 14.6667 14.6665 14.6667H11.9998C11.6316 14.6667 11.3332 14.3682 11.3332 14V9.33334C11.3332 9.15653 11.2629 8.98696 11.1379 8.86193C11.0129 8.73691 10.8433 8.66667 10.6665 8.66667C10.4897 8.66667 10.3201 8.73691 10.1951 8.86193C10.0701 8.98696 9.99984 9.15653 9.99984 9.33334V14C9.99984 14.3682 9.70136 14.6667 9.33317 14.6667H6.6665C6.29831 14.6667 5.99984 14.3682 5.99984 14V9.33334C5.99984 8.09566 6.4915 6.90868 7.36667 6.03351ZM0.666504 6.00001C0.666504 5.63182 0.964981 5.33334 1.33317 5.33334H3.99984C4.36803 5.33334 4.6665 5.63182 4.6665 6.00001V14C4.6665 14.3682 4.36803 14.6667 3.99984 14.6667H1.33317C0.964981 14.6667 0.666504 14.3682 0.666504 14V6.00001ZM1.99984 6.66667V13.3333H3.33317V6.66667H1.99984Z" fill="#E9EAEC"/>
</svg>
